<svg xmlns="http://www.w3.org/2000/svg" xmlns:xlink="http://www.w3.org/1999/xlink" width="150" zoomAndPan="magnify" viewBox="0 0 112.5 112.499997" height="150" preserveAspectRatio="xMidYMid meet" version="1.0"><defs><g/><clipPath id="2ee9f8a182"><path d="M 11 50 L 25.839844 50 L 25.839844 62 L 11 62 Z M 11 50 " clip-rule="nonzero"/></clipPath><clipPath id="91a82ad4de"><path d="M 10 49 L 25.839844 49 L 25.839844 53 L 10 53 Z M 10 49 " clip-rule="nonzero"/></clipPath></defs><g clip-path="url(#2ee9f8a182)"><path fill="#44871f" d="M 25.839844 58.660156 C 24.777344 61.476562 19.824219 63.015625 19.152344 57.816406 C 18.941406 56.175781 19.003906 53.894531 19.339844 50.964844 C 20.179688 50.910156 21.019531 50.871094 21.859375 50.855469 C 21.285156 54.589844 20.386719 63.558594 25.839844 58.660156 Z M 17.246094 51.027344 C 16.972656 53.265625 16.859375 58.425781 15.597656 60.0625 C 13.210938 63.167969 9.339844 60.75 12.25 59.511719 C 12.714844 59.3125 13.269531 59.0625 13.652344 58.707031 C 13.757812 58.609375 13.964844 58.421875 14.054688 58.175781 C 14.617188 56.605469 14.859375 52.429688 14.863281 51.324219 C 15.757812 51.179688 16.347656 51.128906 17.246094 51.027344 Z M 17.246094 51.027344 " fill-opacity="1" fill-rule="evenodd"/></g><g clip-path="url(#91a82ad4de)"><path fill="#6bc732" d="M 25.027344 49.574219 C 25.261719 50.015625 25.132812 50.835938 25.007812 51.382812 C 20.125 51.234375 15.875 51.339844 10.984375 52.390625 C 11.613281 51.425781 12.480469 50.761719 13.488281 50.308594 C 15.554688 49.378906 24.488281 48.558594 25.027344 49.574219 Z M 25.027344 49.574219 " fill-opacity="1" fill-rule="evenodd"/></g><g fill="#ffffff" fill-opacity="1"><g transform="translate(29.362873, 58.433595)"><g><path d="M 6.292969 -7.789062 L 0.300781 -7.789062 L 0.300781 0.597656 L 2.695312 0 L 2.695312 -2.996094 L 6.292969 -2.996094 Z M 3.894531 -4.792969 L 2.695312 -4.792969 L 2.695312 -5.992188 L 3.894531 -5.992188 Z M 3.894531 -4.792969 "/></g></g></g><g fill="#ffffff" fill-opacity="1"><g transform="translate(37.854491, 58.433595)"><g><path d="M 6.292969 0 L 6.292969 -3.894531 L 3.894531 -3.894531 L 6.292969 -4.496094 L 6.292969 -7.789062 L 0.300781 -7.789062 L 0.300781 0 L 2.695312 0 L 2.695312 -2.996094 L 3.894531 -2.996094 L 3.894531 0.597656 Z M 3.894531 -4.792969 L 2.695312 -4.792969 L 2.695312 -5.992188 L 3.894531 -5.992188 Z M 3.894531 -4.792969 "/></g></g></g><g fill="#ffffff" fill-opacity="1"><g transform="translate(46.346109, 58.433595)"><g><path d="M 6.292969 -7.789062 L 0.300781 -7.789062 L 0.300781 0 L 6.292969 0 Z M 3.894531 -5.992188 L 3.894531 -1.796875 L 2.695312 -1.796875 L 2.695312 -5.992188 Z M 3.894531 -5.992188 "/></g></g></g><g fill="#ffffff" fill-opacity="1"><g transform="translate(54.837727, 58.433595)"><g><path d="M 3.894531 -10.1875 L 3.894531 -8.390625 L 6.292969 -8.390625 L 6.292969 -10.1875 Z M 6.292969 -7.789062 L 3.894531 -7.789062 L 3.894531 -1.796875 L 2.695312 -1.796875 L 2.695312 -2.996094 L 0.300781 -2.398438 L 0.300781 0 L 6.292969 0 Z M 6.292969 -7.789062 "/></g></g></g><g fill="#ffffff" fill-opacity="1"><g transform="translate(63.329346, 58.433595)"><g><path d="M 6.292969 -5.992188 L 6.292969 -7.789062 L 0.300781 -7.789062 L 0.300781 0 L 6.292969 0 L 6.292969 -1.796875 L 2.695312 -1.796875 L 2.695312 -5.992188 Z M 6.292969 -2.996094 L 6.292969 -4.792969 L 3.296875 -4.792969 L 3.296875 -2.996094 Z M 6.292969 -2.996094 "/></g></g></g><g fill="#ffffff" fill-opacity="1"><g transform="translate(71.820965, 58.433595)"><g><path d="M 6.292969 -5.394531 L 6.292969 -7.789062 L 0.300781 -7.789062 L 0.300781 0 L 6.292969 0 L 6.292969 -2.996094 L 3.894531 -2.398438 L 3.894531 -1.796875 L 2.695312 -1.796875 L 2.695312 -5.992188 L 3.894531 -5.992188 L 3.894531 -4.792969 Z M 6.292969 -5.394531 "/></g></g></g><g fill="#ffffff" fill-opacity="1"><g transform="translate(80.312581, 58.433595)"><g><path d="M 6.292969 -7.789062 L 0.300781 -7.789062 L 0.300781 -5.992188 L 2.097656 -5.992188 L 2.097656 0.597656 L 4.496094 0 L 4.496094 -5.992188 L 6.292969 -5.992188 Z M 6.292969 -7.789062 "/></g></g></g><g fill="#ffffff" fill-opacity="1"><g transform="translate(88.804197, 58.433595)"><g><path d="M 6.292969 -7.789062 L 0.300781 -7.789062 L 0.300781 0.597656 L 2.695312 0 L 2.695312 -2.996094 L 6.292969 -2.996094 Z M 3.894531 -4.792969 L 2.695312 -4.792969 L 2.695312 -5.992188 L 3.894531 -5.992188 Z M 3.894531 -4.792969 "/></g></g></g><g fill="#ffffff" fill-opacity="1"><g transform="translate(97.295814, 58.433595)"><g><path d="M 0.300781 -10.1875 L 0.300781 -8.390625 L 2.695312 -8.390625 L 2.695312 -10.1875 Z M 0.300781 0 L 2.695312 0 L 2.695312 -7.789062 L 0.300781 -7.789062 Z M 0.300781 0 "/></g></g></g></svg>