<svg width="25" height="24" viewBox="0 0 25 24" fill="none" xmlns="http://www.w3.org/2000/svg">
<circle cx="12.5" cy="12" r="12" fill="#0095FF"/>
<circle cx="12.5" cy="12" r="12" fill="url(#paint0_radial_1_4684)" style="mix-blend-mode:overlay"/>
<mask id="mask0_1_4684" style="mask-type:alpha" maskUnits="userSpaceOnUse" x="0" y="0" width="25" height="24">
<circle cx="12.5" cy="12" r="12" fill="url(#paint1_radial_1_4684)"/>
</mask>
<g mask="url(#mask0_1_4684)">
<g filter="url(#filter0_i_1_4684)">
<path fill-rule="evenodd" clip-rule="evenodd" d="M12.3789 12.0001L9.43951 9.06077L11.5608 6.93945L15.5608 10.9395L16.6215 12.0001L15.5608 13.0608L11.5608 17.0608L9.43951 14.9395L12.3789 12.0001Z" fill="black" style="mix-blend-mode:overlay"/>
<path fill-rule="evenodd" clip-rule="evenodd" d="M12.3789 12.0001L9.43951 9.06077L11.5608 6.93945L15.5608 10.9395L16.6215 12.0001L15.5608 13.0608L11.5608 17.0608L9.43951 14.9395L12.3789 12.0001Z" fill="black" fill-opacity="0.1"/>
</g>
</g>
<defs>
<filter id="filter0_i_1_4684" x="9.43951" y="6.93945" width="8.18201" height="11.1211" filterUnits="userSpaceOnUse" color-interpolation-filters="sRGB">
<feFlood flood-opacity="0" result="BackgroundImageFix"/>
<feBlend mode="normal" in="SourceGraphic" in2="BackgroundImageFix" result="shape"/>
<feColorMatrix in="SourceAlpha" type="matrix" values="0 0 0 0 0 0 0 0 0 0 0 0 0 0 0 0 0 0 127 0" result="hardAlpha"/>
<feOffset dx="1" dy="1"/>
<feGaussianBlur stdDeviation="0.5"/>
<feComposite in2="hardAlpha" operator="arithmetic" k2="-1" k3="1"/>
<feColorMatrix type="matrix" values="0 0 0 0 0 0 0 0 0 0 0 0 0 0 0 0 0 0 0.35 0"/>
<feBlend mode="normal" in2="shape" result="effect1_innerShadow_1_4684"/>
</filter>
<radialGradient id="paint0_radial_1_4684" cx="0" cy="0" r="1" gradientUnits="userSpaceOnUse" gradientTransform="translate(7.5 6.5) rotate(46.2189) scale(16.6208)">
<stop stop-color="white"/>
<stop offset="1" stop-color="white" stop-opacity="0"/>
</radialGradient>
<radialGradient id="paint1_radial_1_4684" cx="0" cy="0" r="1" gradientUnits="userSpaceOnUse" gradientTransform="translate(12.5 12) scale(12)">
<stop offset="0.35" stop-color="white"/>
<stop offset="0.9" stop-color="white" stop-opacity="0"/>
</radialGradient>
</defs>
</svg>
