<svg width="228" height="70" viewBox="0 0 228 70" fill="none" xmlns="http://www.w3.org/2000/svg">
<path d="M84.9135 46.4678V22.6147H94.165C95.9143 22.6147 97.4647 22.9214 98.8164 23.5348C100.168 24.1368 101.23 25.0171 102.002 26.1757C102.775 27.3229 103.161 28.7029 103.161 30.3159C103.161 31.9629 102.803 33.36 102.088 34.5072C101.372 35.643 100.333 36.512 98.9697 37.114C97.6181 37.7046 95.9767 37.9999 94.0458 37.9999H89.9567V46.4678H84.9135ZM89.9567 33.7575H93.9606C95.2668 33.7575 96.2834 33.4906 97.0104 32.9567C97.7487 32.4229 98.1178 31.5767 98.1178 30.4181C98.1178 29.2482 97.743 28.3792 96.9933 27.8113C96.2437 27.2434 95.2441 26.9594 93.9947 26.9594H89.9567V33.7575ZM104.845 46.4678V29.2595H109.82V31.3893C110.376 30.4351 111.092 29.7536 111.967 29.3447C112.841 28.9358 113.795 28.7313 114.829 28.7313C115.193 28.7313 115.528 28.7541 115.834 28.7995C116.141 28.8336 116.442 28.879 116.737 28.9358L116.124 34.0642C115.76 33.9279 115.374 33.8257 114.965 33.7575C114.556 33.678 114.153 33.6383 113.756 33.6383C112.608 33.6383 111.666 33.9733 110.927 34.6435C110.189 35.3136 109.82 36.2678 109.82 37.5059V46.4678H104.845ZM125.643 46.9789C123.792 46.9789 122.15 46.5643 120.719 45.7351C119.288 44.906 118.163 43.8042 117.346 42.4298C116.539 41.044 116.136 39.522 116.136 37.8636C116.136 36.6483 116.369 35.4954 116.834 34.405C117.3 33.3032 117.959 32.332 118.811 31.4915C119.663 30.6396 120.668 29.9694 121.827 29.481C122.985 28.9926 124.257 28.7484 125.643 28.7484C127.495 28.7484 129.13 29.163 130.55 29.9921C131.981 30.8213 133.1 31.9288 133.906 33.3145C134.724 34.6889 135.133 36.2053 135.133 37.8636C135.133 39.0677 134.9 40.2206 134.435 41.3223C133.969 42.4241 133.31 43.401 132.458 44.2528C131.618 45.0934 130.618 45.7579 129.46 46.2463C128.301 46.7347 127.029 46.9789 125.643 46.9789ZM125.643 42.6683C126.518 42.6683 127.301 42.4752 127.994 42.089C128.687 41.6915 129.232 41.1349 129.63 40.4193C130.027 39.6924 130.226 38.8405 130.226 37.8636C130.226 36.8754 130.027 36.0236 129.63 35.308C129.244 34.5924 128.704 34.0415 128.011 33.6553C127.318 33.2577 126.529 33.059 125.643 33.059C124.757 33.059 123.962 33.2577 123.258 33.6553C122.565 34.0415 122.02 34.5924 121.622 35.308C121.236 36.0236 121.043 36.8754 121.043 37.8636C121.043 38.8518 121.242 39.7037 121.639 40.4193C122.037 41.1349 122.582 41.6915 123.275 42.089C123.968 42.4752 124.757 42.6683 125.643 42.6683ZM135.975 54.1348C135.123 54.1348 134.402 54.061 133.811 53.9133C133.209 53.777 132.619 53.5555 132.039 53.2488L133.079 49.5346C133.363 49.6823 133.647 49.7958 133.931 49.8753C134.215 49.9549 134.544 49.9946 134.919 49.9946C135.6 49.9946 136.089 49.8015 136.384 49.4153C136.691 49.0405 136.844 48.4782 136.844 47.7286V29.2595H141.819V48.0864C141.819 49.3017 141.575 50.3581 141.087 51.2554C140.598 52.1641 139.917 52.8683 139.042 53.3681C138.167 53.8792 137.145 54.1348 135.975 54.1348ZM139.332 26.5335C138.502 26.5335 137.787 26.2779 137.185 25.7668C136.583 25.2443 136.282 24.5514 136.282 23.6881C136.282 22.8135 136.583 22.1206 137.185 21.6095C137.787 21.087 138.502 20.8258 139.332 20.8258C140.161 20.8258 140.876 21.087 141.478 21.6095C142.08 22.1206 142.381 22.8135 142.381 23.6881C142.381 24.5514 142.08 25.2443 141.478 25.7668C140.876 26.2779 140.161 26.5335 139.332 26.5335ZM152.999 46.9789C151.125 46.9789 149.478 46.5984 148.058 45.8374C146.638 45.0763 145.531 44.0143 144.736 42.6513C143.94 41.2883 143.543 39.6924 143.543 37.8636C143.543 36.5347 143.77 35.3136 144.224 34.2005C144.69 33.0874 145.338 32.1276 146.167 31.3211C147.007 30.5033 147.99 29.8729 149.114 29.4299C150.25 28.9756 151.494 28.7484 152.846 28.7484C154.334 28.7484 155.651 29.0096 156.798 29.5321C157.957 30.0546 158.917 30.7872 159.678 31.73C160.439 32.6614 160.967 33.7575 161.262 35.0183C161.569 36.2791 161.597 37.6478 161.348 39.1244H148.16C148.16 39.9195 148.365 40.6124 148.774 41.2031C149.194 41.7937 149.779 42.2594 150.528 42.6002C151.289 42.9296 152.175 43.0943 153.186 43.0943C154.186 43.0943 155.14 42.958 156.049 42.6854C156.957 42.4128 157.815 41.9982 158.621 41.4416L160.274 44.8492C159.729 45.2694 159.047 45.6443 158.23 45.9737C157.412 46.2917 156.543 46.5359 155.623 46.7063C154.714 46.888 153.839 46.9789 152.999 46.9789ZM148.45 35.6998H156.577C156.543 34.6889 156.185 33.8881 155.504 33.2975C154.833 32.7068 153.908 32.4115 152.726 32.4115C151.545 32.4115 150.563 32.7068 149.779 33.2975C149.006 33.8881 148.563 34.6889 148.45 35.6998ZM171.495 46.9789C169.678 46.9789 168.054 46.5814 166.622 45.7863C165.191 44.9912 164.061 43.9064 163.232 42.532C162.414 41.1576 162.005 39.6015 162.005 37.8636C162.005 36.5574 162.249 35.3534 162.738 34.2516C163.226 33.1385 163.908 32.173 164.782 31.3552C165.668 30.526 166.702 29.8842 167.883 29.4299C169.064 28.9756 170.342 28.7484 171.717 28.7484C172.977 28.7484 174.142 28.9188 175.209 29.2595C176.288 29.6003 177.265 30.1114 178.14 30.7929L175.891 34.5072C175.346 34.0188 174.738 33.6553 174.068 33.4168C173.409 33.1782 172.711 33.059 171.972 33.059C170.939 33.059 170.047 33.2464 169.297 33.6212C168.559 33.996 167.985 34.5413 167.576 35.2569C167.179 35.9724 166.98 36.8357 166.98 37.8466C166.98 39.3573 167.423 40.5386 168.309 41.3905C169.206 42.2424 170.427 42.6683 171.972 42.6683C172.801 42.6683 173.579 42.515 174.306 42.2083C175.045 41.9016 175.698 41.4757 176.266 40.9305L178.361 44.6958C177.419 45.4001 176.345 45.9566 175.141 46.3655C173.937 46.7745 172.722 46.9789 171.495 46.9789ZM187.214 46.9789C185.374 46.9789 183.92 46.4621 182.853 45.4285C181.796 44.3835 181.268 42.8103 181.268 40.709V24.3015H186.243V29.2595H190.52V33.2464H186.243V39.806C186.243 40.8169 186.453 41.5268 186.873 41.9357C187.294 42.3446 187.856 42.5491 188.56 42.5491C188.924 42.5491 189.276 42.5093 189.617 42.4298C189.969 42.3389 190.292 42.214 190.588 42.055L191.286 45.9737C190.775 46.2576 190.162 46.4962 189.446 46.6893C188.742 46.8824 187.998 46.9789 187.214 46.9789ZM177.775 33.2464V29.2595H181.762V33.2464H177.775ZM199.932 46.4678V22.6147H209.184C210.933 22.6147 212.484 22.9214 213.835 23.5348C215.187 24.1368 216.249 25.0171 217.021 26.1757C217.794 27.3229 218.18 28.7029 218.18 30.3159C218.18 31.9629 217.822 33.36 217.107 34.5072C216.391 35.643 215.352 36.512 213.989 37.114C212.637 37.7046 210.996 37.9999 209.065 37.9999H204.976V46.4678H199.932ZM204.976 33.7575H208.98C210.286 33.7575 211.302 33.4906 212.029 32.9567C212.768 32.4229 213.137 31.5767 213.137 30.4181C213.137 29.2482 212.762 28.3792 212.012 27.8113C211.263 27.2434 210.263 26.9594 209.014 26.9594H204.976V33.7575ZM219.864 46.4678V29.2595H224.839V46.4678H219.864ZM222.351 26.5335C221.522 26.5335 220.807 26.2779 220.205 25.7668C219.603 25.2443 219.302 24.5514 219.302 23.6881C219.302 22.8135 219.603 22.1206 220.205 21.6095C220.807 21.087 221.522 20.8258 222.351 20.8258C223.181 20.8258 223.896 21.087 224.498 21.6095C225.1 22.1206 225.401 22.8135 225.401 23.6881C225.401 24.5514 225.1 25.2443 224.498 25.7668C223.896 26.2779 223.181 26.5335 222.351 26.5335Z" fill="white"/>
<circle cx="35" cy="35" r="33" stroke="white" stroke-width="4"/>
</svg>
