<svg width="270" height="50" viewBox="0 0 270 50" fill="none" xmlns="http://www.w3.org/2000/svg">
<path d="M260.03 0H269.64V47.82H261.001C260.784 46.7976 260.95 45.7242 260.707 44.6379C260.541 44.7529 260.401 44.8296 260.273 44.9446C259.915 45.2513 259.557 45.5708 259.2 45.8775C257.18 47.6283 254.829 48.5867 252.171 48.8806C247.034 49.4429 241.219 46.8743 238.395 42.0182C237.155 39.884 236.414 37.5838 236.095 35.1429C235.481 30.5424 236.58 26.3125 238.957 22.402C241.002 19.0283 244.056 17.0475 247.928 16.3574C251.89 15.6546 255.545 16.4725 258.842 18.7983C259.225 19.0666 259.583 19.3733 260.043 19.7312V0H260.03ZM253.347 40.4974V40.408C253.679 40.3824 253.998 40.3824 254.305 40.3441C257.232 40.0118 259.315 38.555 260.324 35.7436C260.899 34.1717 261.001 32.5232 260.72 30.8747C260.209 27.8843 258.612 25.8013 255.609 24.9451C254.446 24.6128 253.257 24.5617 252.056 24.7278C249.283 25.1112 247.264 26.5169 246.241 29.1622C245.372 31.4114 245.411 33.7117 246.267 35.9736C247.046 38.0055 248.516 39.3856 250.612 40.0118C251.481 40.2802 252.414 40.3441 253.321 40.5102L253.347 40.4974Z" fill="#536BA6"/>
<path d="M130.474 47.8589V3.04202C130.474 3.04202 130.512 2.99091 130.525 2.97813C130.538 2.96535 130.563 2.95257 130.576 2.93979C130.78 2.92701 130.972 2.88867 131.177 2.88867C140.863 2.88867 150.537 2.88867 160.224 2.90145C160.288 2.90145 160.352 2.93979 160.441 2.97813V11.9236C157.131 11.9747 153.834 11.9364 150.524 11.9492C147.215 11.9492 143.892 11.9492 140.595 11.9492C140.429 12.4859 140.403 20.2685 140.544 21.0991H158.754C158.933 21.6486 158.971 29.5845 158.805 30.3896H140.339C140.339 31.2714 140.327 32.102 140.327 32.9327C140.327 33.7506 140.327 34.5557 140.327 35.3735C140.327 36.1914 140.327 37.0476 140.327 37.8783V47.8589H130.461H130.474Z" fill="#536BA6"/>
<path d="M231.392 47.9354H221.756C221.756 47.6415 221.756 47.3859 221.756 47.1176C221.743 41.6864 221.73 36.2424 221.692 30.8112C221.692 30.0445 221.615 29.2777 221.462 28.5237C220.925 25.6868 219.175 24.5622 216.465 24.6516C216.056 24.6644 215.66 24.7283 215.264 24.8178C213.386 25.2395 212.248 26.4407 211.699 28.2426C211.379 29.2905 211.341 30.3767 211.328 31.463C211.277 34.7984 211.277 38.1465 211.264 41.4819C211.264 43.4499 211.264 45.4051 211.251 47.3731C211.251 47.5265 211.213 47.6798 211.188 47.8588H201.744V17.1758C202.459 17.0608 203.2 17.1374 203.929 17.1247C204.696 17.1119 205.462 17.1247 206.229 17.1247H210.715L210.906 20.4728C211.2 20.4473 211.303 20.1917 211.456 20.0255C212.951 18.3642 214.74 17.1374 216.925 16.5879C219.494 15.9234 222.063 15.949 224.593 16.7796C228.12 17.9425 230.139 20.4473 230.778 24.051C231.277 26.8752 231.328 29.7506 231.353 32.6131C231.392 36.3063 231.417 40.0123 231.443 43.7055C231.443 44.9067 231.443 46.0952 231.43 47.2965C231.43 47.4882 231.404 47.6926 231.392 47.9226V47.9354Z" fill="#536BA6"/>
<path d="M164.089 17.0596H173.661C173.661 17.3663 173.661 17.6219 173.661 17.8902C173.661 22.9636 173.661 28.0497 173.699 33.1231C173.699 34.2604 173.866 35.4234 174.07 36.5479C174.568 39.3977 176.524 40.4456 179.22 40.2667C179.757 40.2284 180.294 40.0878 180.792 39.9217C181.968 39.5255 182.786 38.7204 183.233 37.5575C183.833 35.9984 184.102 34.3755 184.115 32.7269C184.153 28.2159 184.14 23.7048 184.166 19.1937C184.166 18.5036 184.23 17.8008 184.268 17.1235C184.805 16.9701 192.919 16.9573 193.635 17.0979V47.6659C193.149 47.7937 185.968 47.8448 184.728 47.717L184.447 44.4711L184.268 44.3816C184.204 44.4966 184.153 44.6244 184.063 44.7266C181.802 47.4103 178.888 48.701 175.399 48.7521C173.597 48.7777 171.846 48.6115 170.16 47.9215C167.118 46.6819 165.303 44.4072 164.652 41.2251C164.422 40.1006 164.307 38.9504 164.256 37.8003C164.141 35.4361 164.064 33.072 164.038 30.695C164 26.5162 164.013 22.3502 164 18.1714C164 17.8135 164.051 17.4557 164.089 17.0596Z" fill="#536BA6"/>
<path d="M34.8851 37.5204L40.099 41.3925C40.0095 41.5203 39.9584 41.6353 39.869 41.7376C36.802 45.2774 33.0832 47.7694 28.4443 48.7662C26.0674 49.2773 23.6649 49.3412 21.2368 49.1623C18.8343 48.9834 16.5085 48.5361 14.2466 47.6927C8.72594 45.6225 4.82827 41.8143 2.2852 36.5492C1.31398 34.5556 0.623899 32.4598 0.125509 30.3001C0.125509 30.2618 0.125509 30.2107 0.0999502 30.1724C-0.360103 29.0222 -0.334544 27.8082 -0.308986 26.5942C-0.308986 26.3897 -0.296207 26.1852 -0.308986 25.9808C-0.564571 22.6837 0.291639 19.5911 1.37788 16.5369C2.5919 13.1121 4.50879 10.1473 7.25633 7.74477C10.3361 5.03557 13.9143 3.32315 17.9014 2.41582C20.3039 1.86632 22.732 1.70019 25.1601 1.90465C29.735 2.30081 33.8499 3.80876 37.2748 6.96524C37.9393 7.57864 38.6166 8.16649 39.345 8.81823L34.6167 12.4475C34.0289 12.1408 33.4538 11.8341 32.8915 11.5146C31.6391 10.8373 30.4379 10.0834 29.1472 9.48275C23.256 6.70965 17.7609 7.47641 12.6875 11.4635C10.0166 13.5721 8.40646 16.4219 7.32023 19.6039C5.45446 25.0607 6.00396 30.3257 8.73872 35.3479C10.9495 39.399 14.4766 41.8143 18.911 42.8877C22.6937 43.795 26.3869 43.45 29.9012 41.6865C31.6519 40.8047 33.1471 39.5779 34.4122 38.0827C34.5528 37.9166 34.7062 37.7505 34.8851 37.5332V37.5204Z" fill="#536BA6"/>
<path d="M59.3321 48.9065C52.8785 48.6892 48.0735 46.0951 45.0449 40.5744C43.3963 37.5585 42.9235 34.287 43.2941 30.875C43.9586 24.792 48.2908 18.8625 55.8433 17.3801C61.3001 16.3066 66.2456 17.5079 70.3861 21.3544C73.1464 23.9231 74.7183 27.1434 75.1656 30.8877C75.6256 34.7343 74.9483 38.3508 72.8397 41.6351C70.3606 45.52 66.744 47.7564 62.2457 48.5742C61.2106 48.7659 60.1499 48.817 59.3193 48.9065H59.3321ZM69.1976 32.9452C69.1082 32.1657 69.0826 31.3606 68.9293 30.5938C68.252 27.2073 66.4501 24.677 63.217 23.3097C61.3895 22.5301 59.4599 22.3895 57.5046 22.6962C54.3482 23.1946 51.9584 24.8304 50.5527 27.7057C49.0064 30.9133 48.9042 34.2359 50.246 37.5457C51.3195 40.2038 53.3003 41.9801 56.035 42.8619C57.6452 43.3859 59.3065 43.4498 60.9806 43.1814C63.4725 42.7852 65.53 41.6351 67.0635 39.616C68.5587 37.648 69.121 35.386 69.1976 32.9452Z" fill="#536BA6"/>
<path d="M95.0246 18.0073H100.609C100.724 18.6335 100.648 19.2597 100.66 19.8731C100.673 20.4992 100.66 21.1126 100.788 21.7899C100.929 21.6366 101.082 21.4832 101.223 21.3171C102.999 19.2597 105.146 17.8156 107.829 17.2405C110.142 16.7421 112.456 16.7038 114.705 17.4961C118.36 18.774 120.494 21.4321 121.337 25.1509C121.554 26.1093 121.644 27.1189 121.657 28.1029C121.695 32.4351 121.695 36.7672 121.695 41.0994C121.695 43.0802 121.682 45.0737 121.669 47.0545C121.669 47.2973 121.669 47.5529 121.669 47.7829C121.158 47.9235 117.082 47.9746 115.829 47.8468C115.829 47.604 115.804 47.3357 115.804 47.0801C115.804 42.0451 115.804 37.0228 115.804 31.9878C115.804 30.8632 115.765 29.7386 115.689 28.6141C115.663 28.1285 115.548 27.6301 115.42 27.1572C114.794 24.8825 113.35 23.4001 111.037 22.8251C108.392 22.1605 105.938 22.5311 103.791 24.3202C102.743 25.1892 102.04 26.3138 101.606 27.6045C101.082 29.1252 100.801 30.7099 100.788 32.3201C100.75 37.2145 100.763 42.109 100.75 47.0034C100.75 47.2718 100.75 47.5401 100.75 47.8852C98.8329 47.9491 96.9415 47.898 95.0758 47.9235C94.9352 47.4123 94.8968 18.9018 95.0374 18.0201L95.0246 18.0073Z" fill="#536BA6"/>
<path d="M81.2612 17.8916H86.6285C86.7691 18.4028 86.8074 46.8366 86.6796 47.8462H81.2995C81.1462 47.3989 81.1078 18.735 81.2612 17.8916Z" fill="#536BA6"/>
<path d="M88.1617 7.01696C88.1617 9.49613 86.4493 11.183 83.9829 11.183C81.5804 11.183 79.6636 9.30444 79.6763 6.97862C79.6763 4.62724 81.5677 2.7998 83.9957 2.7998C86.5005 2.7998 88.1617 4.48667 88.1617 7.02974V7.01696Z" fill="#536BA6"/>
</svg>
