<svg width="270" height="37" viewBox="0 0 270 37" fill="none" xmlns="http://www.w3.org/2000/svg">
<path d="M49.0336 27.1023L34.736 0.407715L34.5011 0.621272L33.3371 1.76374C32.1155 2.95849 30.6671 3.89674 29.0774 4.52339C27.4876 5.14991 25.7887 5.45219 24.0803 5.41242C22.3721 5.37266 20.689 4.99159 19.1301 4.29155C17.5712 3.59164 16.1682 2.58699 15.0034 1.33665L14.7578 1.04836L0.812641 27.1023C0.349859 27.9175 0.0768858 28.8268 0.0140306 29.7623C-0.0488245 30.6977 0.100056 31.6352 0.449597 32.5052H14.4375L21.1646 27.7429C22.2637 26.9608 23.5793 26.5404 24.9285 26.5404C26.2775 26.5404 27.5931 26.9608 28.6924 27.7429L35.4087 32.5266H49.4073C49.7555 31.6521 49.9027 30.7107 49.8381 29.7718C49.7734 28.8328 49.4984 27.9205 49.0336 27.1023Z" fill="#536BA6"/>
<path d="M10.2942 35.4524L21.1642 27.7429C22.2634 26.9607 23.5791 26.5405 24.9281 26.5405C26.2772 26.5405 27.5929 26.9607 28.692 27.7429L39.5087 35.4524C40.7015 36.297 42.1444 36.7144 43.6039 36.637C45.0634 36.5597 46.4542 35.9922 47.551 35.0262C48.6479 34.0603 49.3868 32.7525 49.6479 31.3145C49.9092 29.8764 49.6776 28.3923 48.9905 27.1022L37.7041 5.92822C36.5229 6.51682 35.4419 7.28792 34.5008 8.21328L33.3369 9.34507C32.1158 10.5404 30.668 11.4795 29.0787 12.107C27.4894 12.7346 25.7906 13.0378 24.0822 12.999C22.374 12.9601 20.6907 12.58 19.1314 11.8811C17.5723 11.1821 16.1685 10.1783 15.0031 8.92866L14.6401 8.52292C13.8429 7.68052 12.9253 6.96085 11.9172 6.38735L0.812311 27.1022C0.125259 28.3923 -0.106392 29.8764 0.154847 31.3145C0.416086 32.7525 1.15493 34.0603 2.2518 35.0262C3.34869 35.9922 4.73943 36.5597 6.19895 36.637C7.65847 36.7144 9.1014 36.297 10.2942 35.4524Z" fill="#536BA6"/>
<path d="M10.2942 35.4523L21.1642 27.7429C22.2634 26.9608 23.5791 26.5404 24.9281 26.5404C26.2772 26.5404 27.5929 26.9608 28.692 27.7429L39.5087 35.4523C40.7015 36.297 42.1444 36.7144 43.6039 36.6371C45.0634 36.5598 46.4542 35.9921 47.551 35.0263C48.6479 34.0603 49.3868 32.7525 49.6479 31.3144C49.9092 29.8764 49.6776 28.3923 48.9905 27.1023L41.1743 12.3989C38.655 12.8486 36.3294 14.0468 34.5008 15.8373L33.3369 16.9797C32.1151 18.1743 30.6668 19.1126 29.0771 19.7392C27.4873 20.3659 25.7883 20.6682 24.08 20.6284C22.3717 20.5885 20.6886 20.2074 19.1298 19.5075C17.5709 18.8076 16.1679 17.8029 15.0031 16.5526L14.6401 16.1682C13.0087 14.4067 10.8837 13.1787 8.54304 12.6445L0.812311 27.1023C0.125259 28.3923 -0.106392 29.8764 0.154847 31.3144C0.416086 32.7525 1.15493 34.0603 2.2518 35.0263C3.34869 35.9921 4.73943 36.5598 6.19895 36.6371C7.65847 36.7144 9.1014 36.297 10.2942 35.4523Z" fill="#536BA6"/>
<path d="M74.5641 2.31873C74.7267 2.30768 74.89 2.32928 75.044 2.38254C75.1981 2.43568 75.3399 2.51926 75.461 2.62837C75.7 2.90917 75.878 3.23636 75.9843 3.58932L85.1458 27.2087C85.1576 27.2936 85.1576 27.3799 85.1458 27.4649C85.1478 27.5983 85.1222 27.7306 85.0708 27.8537C85.0194 27.9768 84.9432 28.088 84.8468 28.1803C84.6606 28.3692 84.4073 28.4767 84.1421 28.4793H81.4834C81.2929 28.5032 81.0995 28.4871 80.9156 28.432C80.7317 28.3768 80.5614 28.2838 80.4155 28.159C80.2363 27.9828 80.0946 27.7721 79.9991 27.5397L78.3975 23.3966H66.6092L64.9968 27.5397C64.9016 27.7697 64.764 27.9798 64.5911 28.159C64.4443 28.2822 64.2738 28.3741 64.0902 28.4292C63.9066 28.4843 63.7137 28.5014 63.5233 28.4793H60.8646C60.597 28.4728 60.3417 28.3661 60.1491 28.1803C60.0528 28.088 59.9766 27.9768 59.9252 27.8537C59.8737 27.7306 59.8481 27.5983 59.8501 27.4649C59.8332 27.3804 59.8332 27.2932 59.8501 27.2087L69.001 3.58932C69.1072 3.23636 69.2854 2.90917 69.5242 2.62837C69.6453 2.51926 69.7872 2.43568 69.9412 2.38254C70.0954 2.32928 70.2585 2.30768 70.4211 2.31873H74.5641ZM76.625 18.7198L72.514 8.04199L68.4031 18.7198H76.625Z" fill="#536BA6"/>
<path d="M94.1259 21.0804L100.372 3.24846C100.463 3.01871 100.597 2.80848 100.767 2.62918C100.877 2.51934 101.009 2.43478 101.155 2.38127C101.301 2.32788 101.456 2.30677 101.611 2.31954H104.451C104.583 2.31843 104.713 2.34433 104.835 2.39587C104.956 2.44729 105.065 2.52302 105.156 2.6185C105.253 2.70797 105.33 2.81707 105.382 2.93869C105.433 3.06019 105.458 3.19127 105.455 3.3232V3.45133C105.445 3.53711 105.42 3.62032 105.38 3.6969L97.0089 27.1881C96.9003 27.5369 96.7224 27.8601 96.4857 28.1384C96.3668 28.2514 96.2257 28.3385 96.0712 28.3936C95.9167 28.4488 95.7523 28.471 95.5887 28.4587H92.599C92.4354 28.471 92.271 28.4488 92.1166 28.3936C91.9621 28.3385 91.8209 28.2514 91.7021 28.1384C91.4655 27.8601 91.2875 27.5369 91.1789 27.1881L82.8074 3.6969C82.7678 3.62032 82.7424 3.53711 82.7327 3.45133V3.3232C82.7296 3.19127 82.7546 3.06019 82.8062 2.93869C82.8577 2.81707 82.9347 2.70797 83.0316 2.6185C83.1241 2.52228 83.2352 2.44594 83.3583 2.39452C83.4813 2.3431 83.6137 2.31757 83.7471 2.31954H86.5874C86.7403 2.30837 86.8939 2.33021 87.0376 2.3836C87.1813 2.43699 87.3118 2.52081 87.4202 2.62918C87.5903 2.80848 87.7245 3.01871 87.8153 3.24846L94.1259 21.0804Z" fill="#536BA6"/>
<path d="M117.938 2.31968C118.1 2.30863 118.263 2.33023 118.417 2.38349C118.572 2.43663 118.713 2.52021 118.835 2.62932C119.069 2.91282 119.247 3.23915 119.358 3.59027L128.509 27.2096C128.52 27.2946 128.52 27.3808 128.509 27.4659C128.495 27.7397 128.376 27.9978 128.178 28.1867C127.979 28.3754 127.715 28.4806 127.441 28.4802H124.75C124.56 28.5029 124.367 28.4861 124.183 28.431C123.999 28.3759 123.829 28.2836 123.682 28.1599C123.505 27.9835 123.368 27.7727 123.277 27.5406L121.664 23.3976H109.983L108.381 27.5406C108.285 27.7731 108.144 27.9838 107.964 28.1599C107.818 28.2836 107.648 28.3759 107.464 28.431C107.28 28.4861 107.087 28.5029 106.897 28.4802H104.217C103.954 28.4648 103.706 28.3526 103.52 28.1653C103.335 27.9781 103.226 27.729 103.213 27.4659C103.201 27.3808 103.201 27.2946 103.213 27.2096L112.374 3.59027C112.481 3.23731 112.659 2.91012 112.898 2.62932C113.018 2.51874 113.159 2.43406 113.314 2.38079C113.468 2.32753 113.632 2.30667 113.795 2.31968H117.938ZM119.988 18.7207L115.877 8.04294L111.766 18.7207H119.988Z" fill="#536BA6"/>
<path d="M144.632 23.8027C144.897 23.8054 145.151 23.9128 145.337 24.1017C145.433 24.1941 145.509 24.3052 145.561 24.4283C145.612 24.5514 145.638 24.6838 145.636 24.8171C145.636 24.8171 144.472 28.0205 144.27 28.1806C144.083 28.3694 143.829 28.4769 143.564 28.4796H131.467C131.199 28.4731 130.944 28.3665 130.751 28.1806C130.654 28.0882 130.578 27.977 130.527 27.8541C130.475 27.731 130.451 27.5985 130.452 27.4651V3.32273C130.449 3.19079 130.474 3.0596 130.525 2.9381C130.577 2.8166 130.654 2.70749 130.751 2.61803C130.843 2.52168 130.955 2.44547 131.078 2.39405C131.2 2.34263 131.333 2.3171 131.467 2.31894H134.541C134.814 2.31845 135.076 2.42215 135.275 2.60882C135.474 2.79537 135.593 3.05076 135.609 3.32273V23.8027H144.632Z" fill="#536BA6"/>
<path d="M161.737 2.31968C161.9 2.30863 162.062 2.33023 162.217 2.38349C162.372 2.43663 162.513 2.52021 162.634 2.62932C162.869 2.91282 163.047 3.23915 163.157 3.59027L172.308 27.2096C172.32 27.2946 172.32 27.3808 172.308 27.4659C172.295 27.7307 172.184 27.9812 171.997 28.1687C171.809 28.3563 171.559 28.4673 171.294 28.4802H168.602C168.412 28.5029 168.22 28.4861 168.035 28.431C167.853 28.3759 167.682 28.2836 167.535 28.1599C167.359 27.9835 167.221 27.7727 167.13 27.5406L165.517 23.3976H153.761L152.159 27.5406C152.064 27.7731 151.923 27.9838 151.742 28.1599C151.596 28.2836 151.426 28.3759 151.243 28.431C151.059 28.4861 150.866 28.5029 150.674 28.4802H147.984C147.722 28.4648 147.474 28.3526 147.288 28.1653C147.103 27.9781 146.993 27.729 146.98 27.4659C146.968 27.3808 146.968 27.2946 146.98 27.2096L156.142 3.59027C156.249 3.23731 156.427 2.91012 156.665 2.62932C156.785 2.51874 156.927 2.43406 157.081 2.38079C157.235 2.32753 157.4 2.30667 157.562 2.31968H161.737ZM163.788 18.7207L159.677 8.04294L155.565 18.7207H163.788Z" fill="#536BA6"/>
<path d="M193.729 2.31894C193.86 2.31784 193.99 2.34385 194.112 2.39528C194.233 2.4467 194.342 2.52254 194.433 2.61803C194.53 2.70749 194.607 2.8166 194.659 2.9381C194.71 3.0596 194.735 3.19079 194.733 3.32273V18.6454C194.753 20.0691 194.525 21.4855 194.06 22.8311C193.635 24.0363 192.946 25.131 192.041 26.0344C191.089 26.9674 189.94 27.6753 188.678 28.1059C185.634 29.0881 182.358 29.0881 179.313 28.1059C178.059 27.6727 176.917 26.965 175.971 26.0344C175.072 25.1321 174.388 24.0366 173.974 22.8311C173.522 21.4829 173.301 20.0674 173.323 18.6454V3.32273C173.339 3.06144 173.449 2.815 173.635 2.62993C173.819 2.44486 174.065 2.33428 174.327 2.31894H177.359C177.491 2.31784 177.622 2.34385 177.743 2.39528C177.864 2.4467 177.973 2.52254 178.064 2.61803C178.161 2.70749 178.238 2.8166 178.29 2.9381C178.341 3.0596 178.366 3.19079 178.363 3.32273V18.4638C178.342 19.3539 178.483 20.2403 178.779 21.0799C179.01 21.7467 179.398 22.3475 179.911 22.8312C180.424 23.3148 181.047 23.6665 181.727 23.8561C182.468 24.0759 183.238 24.1839 184.011 24.1764C184.788 24.1823 185.562 24.0744 186.307 23.8561C186.982 23.6672 187.603 23.3236 188.122 22.8524C188.639 22.3547 189.04 21.7496 189.297 21.0799C189.603 20.2423 189.747 19.355 189.724 18.4638V3.32273C189.722 3.19079 189.746 3.0596 189.798 2.9381C189.849 2.8166 189.927 2.70749 190.024 2.61803C190.116 2.52168 190.227 2.44547 190.35 2.39405C190.473 2.34263 190.605 2.3171 190.739 2.31894H193.729Z" fill="#536BA6"/>
<path d="M215.853 28.4801C215.676 28.4915 215.499 28.4672 215.332 28.4084C215.166 28.3498 215.012 28.2578 214.881 28.1384C214.708 27.9738 214.543 27.7992 214.39 27.6151L203.947 12.0683V27.4656C203.95 27.599 203.924 27.7315 203.872 27.8546C203.821 27.9775 203.745 28.0887 203.649 28.1811C203.456 28.3668 203.201 28.4736 202.933 28.4801H199.89C199.622 28.4736 199.367 28.3668 199.174 28.1811C199.081 28.0868 199.009 27.975 198.958 27.8522C198.909 27.7294 198.885 27.5981 198.886 27.4656V3.32321C198.886 3.05702 198.991 2.80174 199.18 2.61348C199.368 2.42522 199.623 2.31943 199.89 2.31943H202.506C202.682 2.30654 202.858 2.32924 203.025 2.38607C203.192 2.44301 203.346 2.53285 203.477 2.65054C203.702 2.87477 203.862 3.0456 203.969 3.17373L214.433 18.7206V3.32321C214.433 3.05702 214.538 2.80174 214.727 2.61348C214.915 2.42522 215.17 2.31943 215.437 2.31943H218.458C218.592 2.31759 218.725 2.34311 218.847 2.39454C218.97 2.44596 219.082 2.52217 219.174 2.61851C219.271 2.70798 219.348 2.81709 219.4 2.93859C219.451 3.06009 219.476 3.19128 219.473 3.32321V27.4656C219.475 27.599 219.449 27.7315 219.398 27.8546C219.347 27.9775 219.27 28.0887 219.174 28.1811C218.981 28.3668 218.726 28.4736 218.458 28.4801H215.853Z" fill="#536BA6"/>
<path d="M239.878 20.1829C239.901 19.9167 240.025 19.6692 240.223 19.4893C240.42 19.3093 240.678 19.2102 240.946 19.2113H243.978C244.246 19.2093 244.506 19.3084 244.703 19.4889C244.809 19.5765 244.89 19.6887 244.94 19.8155C244.991 19.9422 245.008 20.0796 244.992 20.2149C244.905 21.2715 244.645 22.3067 244.224 23.2794C243.765 24.3371 243.08 25.2811 242.216 26.045C241.222 26.9259 240.069 27.6107 238.821 28.0631C237.221 28.6112 235.535 28.8645 233.845 28.8106C232.291 28.8387 230.744 28.5781 229.285 28.0417C228.029 27.569 226.883 26.842 225.921 25.9062C224.993 24.9747 224.267 23.8625 223.786 22.6388C223.264 21.3146 222.955 19.9165 222.868 18.4958C222.868 17.5455 222.793 16.4991 222.793 15.3565C222.793 14.2141 222.793 13.1569 222.868 12.2173C222.955 10.7933 223.265 9.39162 223.786 8.06359C224.267 6.83987 224.993 5.72784 225.921 4.79622C226.887 3.86374 228.031 3.13719 229.285 2.66064C230.747 2.13365 232.292 1.87678 233.845 1.90256C235.537 1.85911 237.223 2.12322 238.821 2.682C240.069 3.13449 241.222 3.81919 242.216 4.70012C243.082 5.46975 243.768 6.42137 244.224 7.48702C244.638 8.45447 244.899 9.48158 244.992 10.5302C245.008 10.6657 244.991 10.8029 244.94 10.9296C244.89 11.0564 244.809 11.1687 244.703 11.2563C244.507 11.4407 244.248 11.5436 243.978 11.5446H240.946C240.69 11.5392 240.444 11.4533 240.241 11.299C240.126 11.2123 240.03 11.1032 239.959 10.9785C239.886 10.8537 239.841 10.7157 239.824 10.5729C239.745 10.0563 239.567 9.55976 239.301 9.11008C239.016 8.61586 238.635 8.18386 238.179 7.83937C237.639 7.4324 237.032 7.12178 236.386 6.92112C235.563 6.67039 234.705 6.55146 233.845 6.56877C232.977 6.55036 232.113 6.70279 231.303 7.01722C230.628 7.29077 230.014 7.69749 229.499 8.21307C229.002 8.72447 228.619 9.33603 228.377 10.007C228.111 10.716 227.952 11.4612 227.908 12.2173C227.908 13.1569 227.833 14.2034 227.833 15.3565C227.833 16.5098 227.833 17.4921 227.908 18.4958C227.95 19.2557 228.108 20.0047 228.377 20.7168C228.62 21.3813 229.002 21.9859 229.499 22.4893C230.012 23.0085 230.625 23.4157 231.303 23.6853C232.113 23.9997 232.977 24.152 233.845 24.1337C234.705 24.151 235.563 24.0321 236.386 23.7814C237.039 23.5826 237.654 23.2718 238.201 22.863C238.664 22.5207 239.052 22.0886 239.344 21.5924C239.608 21.1602 239.789 20.682 239.878 20.1829Z" fill="#536BA6"/>
<path d="M268.985 2.31894C269.119 2.3171 269.251 2.34263 269.374 2.39405C269.497 2.44547 269.608 2.52168 269.7 2.61803C269.797 2.70749 269.875 2.8166 269.926 2.9381C269.978 3.0596 270.002 3.19079 270 3.32273V27.4651C270.001 27.5985 269.975 27.731 269.924 27.8541C269.874 27.977 269.796 28.0882 269.7 28.1806C269.508 28.3665 269.253 28.4731 268.985 28.4796H265.963C265.689 28.48 265.425 28.3748 265.227 28.1859C265.028 27.9972 264.909 27.7391 264.896 27.4651V17.599H253.662V27.4651C253.65 27.7283 253.54 27.9774 253.354 28.1647C253.169 28.352 252.921 28.4641 252.659 28.4796H249.626C249.496 28.4802 249.366 28.4552 249.246 28.4057C249.124 28.3561 249.015 28.2834 248.922 28.1913C248.822 28.0994 248.744 27.9869 248.692 27.8614C248.639 27.736 248.616 27.6008 248.622 27.4651V3.32273C248.62 3.19079 248.644 3.0596 248.696 2.9381C248.747 2.8166 248.825 2.70749 248.922 2.61803C249.012 2.52254 249.122 2.4467 249.243 2.39528C249.365 2.34385 249.495 2.31784 249.626 2.31894H252.659C252.92 2.33428 253.167 2.44486 253.352 2.62993C253.536 2.815 253.648 3.06144 253.662 3.32273V12.9328H264.948V3.32273C264.966 3.05076 265.085 2.79537 265.284 2.60882C265.482 2.42215 265.744 2.31845 266.016 2.31894H268.985Z" fill="#536BA6"/>
</svg>
