<svg width="270" height="79" viewBox="0 0 270 79" fill="none" xmlns="http://www.w3.org/2000/svg">
<path d="M0 62.6119C0.180814 61.6627 0.27122 60.7134 0.497238 59.7641C1.89854 53.7069 6.50929 49.5029 12.657 48.7797C17.0869 48.2824 21.0648 49.4125 24.3646 52.5316C24.455 52.622 24.5455 52.7124 24.6359 52.8028C24.7263 52.8932 24.8167 52.9836 24.8619 53.074L23.1441 54.7465C22.0593 53.6165 20.7484 52.6672 19.1662 52.0343C11.9337 49.0509 4.06831 53.3452 2.80261 61.075C2.07936 65.5049 3.07383 69.4376 6.32848 72.6019C8.90507 75.1333 12.1145 76.1277 15.6856 75.8113C19.3471 75.4497 21.1552 74.4552 24.1838 71.3814L26.0372 73.0087C25.2235 73.7772 24.5002 74.5456 23.6866 75.2237C16.9965 80.6029 6.50929 78.7043 2.12456 71.3814C0.949272 69.3924 0.27122 67.2679 0.13561 64.9625C0.13561 64.7817 0.0452034 64.5557 0 64.3749V62.6571L0 62.6119Z" fill="#536BA6"/>
<path d="M86.8802 6.33496V30.2024H84.394V1.40779C84.8913 1.40779 85.3885 1.36258 85.8858 1.40779C86.1118 1.45299 86.383 1.72421 86.5638 1.95023C89.9541 6.15414 93.3443 10.3581 96.7346 14.562C99.4468 17.9522 102.159 21.3425 104.916 24.6875C105.007 24.8232 105.142 24.9588 105.368 25.1848V1.45299H107.855V30.2024C106.996 30.2928 106.227 30.3832 105.549 29.4791C99.5824 21.9753 93.5251 14.4716 87.4679 7.01301C87.3323 6.8322 87.1967 6.65138 86.9254 6.33496H86.8802Z" fill="#536BA6"/>
<path d="M61.1147 63.3349C60.9791 68.8949 58.9449 73.3248 54.2438 76.2178C46.514 80.9642 35.2583 77.5739 32.9077 67.0868C31.7325 61.798 32.8173 56.9612 36.6144 52.9381C39.1458 50.2711 42.3101 48.915 45.9715 48.7342C53.4301 48.3273 59.5778 53.2997 60.8887 60.8035C61.0243 61.6623 61.0695 62.5664 61.1147 63.3349ZM35.0323 63.4705C35.0323 65.0526 35.2583 66.5895 35.846 68.0812C37.4733 72.3756 40.5019 75.0878 45.0675 75.7658C49.4974 76.3987 53.2041 74.9974 55.9615 71.4263C58.4477 68.1716 59.0805 64.465 58.2217 60.4871C56.6395 53.0285 48.6837 48.9602 41.858 52.2148C37.1569 54.475 35.2131 58.4981 34.9871 63.5157L35.0323 63.4705Z" fill="#536BA6"/>
<path d="M228.684 30.1996H226.198V15.5537H207.755V30.1996H205.269V1.4502H207.71V13.0675H226.153V1.4502H228.684V30.1996Z" fill="#536BA6"/>
<path d="M148.086 13.1139H158.347V15.5097H148.086V27.8502H161.647V30.246H145.6V1.40625H161.24V3.75683H148.131V13.1139H148.086Z" fill="#536BA6"/>
<path d="M269.548 49.1399V51.4905H256.484V60.8024H266.7V63.153H256.529V75.4031H257.252C261.23 75.4031 265.253 75.4031 269.231 75.4031C269.864 75.4031 270.045 75.5839 270 76.1716C269.954 76.6688 270 77.2112 270 77.7537H253.998V49.0947H269.548V49.1399Z" fill="#536BA6"/>
<path d="M194.329 5.33822L192.611 7.05595C191.526 5.88067 190.26 5.0218 188.814 4.38895C181.581 1.22471 173.49 5.51904 172.179 13.294C171.41 17.95 172.495 22.0635 176.066 25.2729C180.948 29.6125 188.769 29.1152 193.108 24.2333C193.244 24.0524 193.379 23.9168 193.605 23.6908L195.413 25.2729C193.877 27.2167 191.978 28.7084 189.673 29.5221C183.751 31.6466 178.372 30.7425 173.716 26.4482C171.275 24.188 170.009 21.2498 169.602 17.9952C169.105 14.2885 169.693 10.7626 171.727 7.5984C174.71 2.89724 179.14 0.772679 184.745 0.998696C188.588 1.17951 192.068 2.80683 194.329 5.33822Z" fill="#536BA6"/>
<path d="M170.553 53.0724L168.926 54.6545C167.976 53.9764 167.072 53.208 166.078 52.6203C158.936 48.5972 150.121 52.7107 148.584 60.7117C147.77 64.8705 148.539 68.7127 151.387 71.9222C156.223 77.3466 164.857 77.211 169.558 71.6962C169.649 71.6058 169.739 71.4702 169.875 71.3346L171.638 72.8715C170.869 73.9563 169.92 74.8152 168.835 75.5837C161.196 81.0081 148.81 77.9795 146.234 67.3566C144.923 61.9322 146.008 57.0051 149.895 52.8916C152.426 50.2246 155.591 48.8685 159.252 48.6876C163.546 48.4616 167.298 49.7273 170.372 52.8464C170.417 52.8916 170.463 52.982 170.508 53.0272L170.553 53.0724Z" fill="#536BA6"/>
<path d="M122.592 49.1436H138.142V51.5393H125.078V60.806H135.339C135.339 61.5293 135.339 62.2525 135.339 62.9306C135.339 63.021 134.978 63.2018 134.797 63.2018C133.26 63.2018 131.723 63.2018 130.186 63.2018C128.739 63.2018 127.248 63.2018 125.801 63.2018H125.123V75.4519H138.549V77.8477H122.637V49.1888L122.592 49.1436Z" fill="#536BA6"/>
<path d="M244.596 49.096C243.42 51.9438 242.29 54.7464 241.16 57.5038C238.493 64.0583 235.781 70.658 233.159 77.2125C232.978 77.6645 232.798 77.8906 232.3 77.8002C232.119 77.8002 231.939 77.8002 231.758 77.8002C231.351 77.8906 231.17 77.6645 231.035 77.3029C228.503 71.0648 225.972 64.872 223.44 58.6339C222.22 55.6053 220.954 52.5766 219.734 49.548C219.689 49.4124 219.643 49.2768 219.598 49.096C220.412 49.096 221.18 49.096 221.949 49.096C222.084 49.096 222.31 49.3672 222.356 49.5932C224.073 53.7519 225.746 57.9107 227.418 62.0694C228.91 65.6856 230.357 69.3471 231.848 72.9634C231.893 73.1442 231.984 73.2798 232.119 73.551C232.707 72.1045 233.25 70.7484 233.792 69.3923C236.459 62.7926 239.126 56.1929 241.793 49.5932C241.974 49.1864 242.155 49.0508 242.561 49.0508C243.194 49.0508 243.872 49.0508 244.596 49.0508V49.096Z" fill="#536BA6"/>
<path d="M42.4912 1.40625H58.0864V3.75683H45.0226V13.0687H55.1934V15.4645H45.0226V30.1556H42.5364V1.40625H42.4912Z" fill="#536BA6"/>
<path d="M125.621 30.1996V3.80077H117.394V1.4502H136.289V3.75557H128.107V30.1996H125.576H125.621Z" fill="#536BA6"/>
<path d="M189.628 51.4919V77.8003H187.142V51.5371C186.871 51.5371 186.645 51.5371 186.419 51.5371C184.113 51.5371 181.808 51.5371 179.457 51.5371C179.005 51.5371 178.87 51.4015 178.87 50.9495C178.87 50.3618 178.87 49.7742 178.87 49.1865H197.81C197.81 49.8646 197.81 50.5426 197.81 51.2659C197.81 51.4015 197.493 51.5371 197.313 51.5371C195.459 51.5371 193.561 51.5371 191.707 51.5371C191.029 51.5371 190.397 51.5371 189.628 51.5371V51.4919Z" fill="#536BA6"/>
<path d="M73.4112 75.4519H74.2249C78.2028 75.4519 82.2259 75.4519 86.2038 75.4519C86.8366 75.4519 87.0174 75.6328 86.9722 76.2204C86.927 76.7176 86.9722 77.2601 86.9722 77.8025H70.9702V49.1436H73.4112V75.4067V75.4519Z" fill="#536BA6"/>
<path d="M112.692 77.8025H96.7808V49.1436H99.2218V75.4067H112.692V77.7573V77.8025Z" fill="#536BA6"/>
<path d="M68.5732 1.40625H71.0142V30.2008H68.5732V1.40625Z" fill="#536BA6"/>
<path d="M210.105 77.8025H207.664V49.1436H210.105V77.8025Z" fill="#536BA6"/>
</svg>
