<svg width="270" height="42" viewBox="0 0 270 42" fill="none" xmlns="http://www.w3.org/2000/svg">
<path fill-rule="evenodd" clip-rule="evenodd" d="M7.63181 8.63671V18.2684H0V8.63671H7.63181ZM7.68841 1.39168H24.7821V8.63671H7.68841V1.39168ZM258.888 24.8437L270 40.6073H260.981L253.793 30.2114L250.756 33.4189V40.6073H243.397V0.561523H250.756V23.5136L260.152 13.3913H269.783L258.888 24.8437ZM0 40.6073V25.3719H7.68841V18.3156H22.9049V25.3437H7.68841V40.6073H0ZM44.1022 20.6929C43.2815 20.5231 42.5551 20.476 41.8947 20.476C38.1307 20.476 34.8667 22.2966 34.8667 28.1643V40.6073H27.5085V13.3913H34.6498V17.4288C36.3101 13.8346 40.0646 13.1743 42.3947 13.1743C42.9985 13.1743 43.555 13.2215 44.1022 13.2781V20.6929ZM56.0263 41.3808C50.2153 41.3808 46.6776 37.4565 46.6776 33.1925C46.6776 28.3247 50.2719 25.6172 54.8094 24.9475L61.4978 23.9569C63.0544 23.7305 63.545 22.957 63.545 22.0231C63.545 20.0797 62.0545 18.476 58.9602 18.476C55.7528 18.476 53.9793 20.5231 53.7623 22.9098L47.2342 21.5231C47.6776 17.259 51.602 12.5611 58.9036 12.5611C67.5354 12.5611 70.7428 17.4288 70.7428 22.9098V36.2961C70.7428 37.73 70.9032 39.6639 71.073 40.6073H64.328C64.1582 39.8903 64.045 38.3904 64.045 37.3433C62.6676 39.5035 60.0639 41.3808 56.0263 41.3808ZM54.0359 32.7491C54.0359 34.3528 55.1962 35.8999 57.5735 35.8999C60.6771 35.8999 63.545 34.4094 63.545 29.5982V28.3813L57.4131 29.3246C55.5264 29.5982 54.0359 30.6454 54.0359 32.7491ZM75.1672 40.6073V13.3913H82.1858V16.7119C83.6857 14.0516 87.1668 12.6177 90.1572 12.6177C93.8552 12.6177 96.8461 14.2214 98.2328 17.1553C100.383 13.8346 103.261 12.6177 106.854 12.6177C111.892 12.6177 116.704 15.6553 116.704 22.957V40.6073H109.572V24.4569C109.572 21.5231 108.128 19.3062 104.761 19.3062C101.6 19.3062 99.7226 21.74 99.7226 24.6739V40.6073H92.4213V24.4569C92.4213 21.5231 90.9308 19.3062 87.6102 19.3062C84.4027 19.3062 82.516 21.6929 82.516 24.6739V40.6073H75.1672ZM160.664 30.8718L166.579 13.3913H174.325L180.183 30.9283L185.22 13.3913H192.522L184.003 40.6073H176.645L170.286 22.0231L164.032 40.6073H156.57L147.882 13.3913H155.627L160.664 30.8718ZM220.86 26.9945C220.86 35.3528 214.718 41.4374 206.588 41.4374C198.456 41.4374 192.314 35.3528 192.314 26.9945C192.314 18.5892 198.456 12.5611 206.588 12.5611C214.718 12.5611 220.86 18.5892 220.86 26.9945ZM213.502 26.9945C213.502 21.8533 210.182 19.2589 206.588 19.2589C202.993 19.2589 199.673 21.8533 199.673 26.9945C199.673 32.0888 202.993 34.7396 206.588 34.7396C210.182 34.7396 213.502 32.1454 213.502 26.9945ZM238.558 13.1743C239.161 13.1743 239.718 13.2215 240.265 13.2781V20.6929C239.435 20.5231 238.718 20.476 238.058 20.476C234.293 20.476 231.029 22.2966 231.029 28.1643V40.6073H223.672V13.3913H230.812V17.4288C232.473 13.8346 236.228 13.1743 238.558 13.1743Z" fill="#536BA6"/>
</svg>
