<svg width="90" height="90" viewBox="0 0 90 90" fill="none" xmlns="http://www.w3.org/2000/svg">
<g clip-path="url(#clip0_1_4425)">
<mask id="mask0_1_4425" style="mask-type:luminance" maskUnits="userSpaceOnUse" x="0" y="0" width="90" height="90">
<path d="M90 0H0V90H90V0Z" fill="white"/>
</mask>
<g mask="url(#mask0_1_4425)">
<path d="M27.735 64.2579C30.9779 61.0219 30.9779 55.7754 27.735 52.5395C24.4923 49.3036 19.2345 49.3036 15.9917 52.5395C12.7489 55.7754 12.7489 61.0219 15.9917 64.2579C19.2345 67.4938 24.4923 67.4938 27.735 64.2579Z" fill="#12FEC5"/>
<path d="M72.3016 38.7708C76.268 36.4737 77.6172 31.4028 75.3151 27.4448C73.0131 23.4868 67.9316 22.1404 63.9652 24.4376C59.9986 26.7347 58.6494 31.8056 60.9515 35.7635C63.2535 39.7216 68.3352 41.0679 72.3016 38.7708Z" fill="#12FEC5"/>
<path d="M77.5278 47.7483C74.8536 49.2955 73.3735 52.1045 73.3927 54.9835C73.3079 55.5284 72.8735 57.5116 70.9589 58.7441L67.2583 60.8871C64.8972 62.1098 62.6431 61.0759 62.6431 61.0759L62.6623 61.1122C60.1799 59.7077 57.0375 59.6158 54.3926 61.1485C51.7596 62.674 50.2819 65.4224 50.2576 68.2555C50.2528 68.3207 50.0077 70.7422 47.7971 72.1612L43.8247 74.4616C42.6259 74.9991 41.4759 74.9822 40.6604 74.8441C40.3086 74.0936 39.9811 72.9869 40.1824 71.6842L44.1013 56.6519H44.1111C44.8197 53.9375 47.3093 52.964 47.3093 52.964H47.3045C47.9427 52.7776 48.5687 52.5161 49.1705 52.1673C53.1355 49.8695 54.4847 44.7989 52.1844 40.8423C51.8058 40.1933 51.3521 39.6146 50.84 39.1085C50.6168 38.8229 49.3986 37.1447 49.7772 34.888L53.6742 19.9428H53.6766C54.3852 17.2285 56.875 16.2527 56.875 16.2527H56.87C57.5108 16.0662 58.1392 15.8023 58.7411 15.4536C62.7061 13.1556 64.0553 8.08512 61.7548 4.1285C59.4521 0.17187 54.3708 -1.17445 50.4056 1.12107C47.7339 2.66838 46.2513 5.47482 46.2708 8.3539C46.1882 8.89631 45.7515 10.8892 43.8271 12.1241L40.1485 14.2549C37.7849 15.485 35.5209 14.4487 35.5209 14.4487L35.5428 14.485C33.0604 13.0806 29.9179 12.9885 27.2729 14.5213C24.6279 16.0541 23.1623 18.7928 23.138 21.6258C23.1332 21.6694 22.8978 24.115 20.6677 25.5389L17.0012 27.6624C14.6352 28.8998 12.3664 27.8587 12.3664 27.8587C9.8888 26.4783 6.76577 26.396 4.13534 27.9215C0.170285 30.217 -1.1789 35.2875 1.12394 39.2442C3.42678 43.2008 8.50807 44.5471 12.4731 42.2516C15.106 40.7261 16.5838 37.9801 16.6081 35.1471C16.6081 35.1471 16.8289 32.67 19.071 31.2366L22.7522 29.1056C25.0695 27.8948 27.2923 28.8731 27.37 28.9094C29.8475 30.2946 32.9729 30.3793 35.6059 28.8538C38.2532 27.3211 39.7311 24.5533 39.7408 21.7057L39.7602 21.742C39.7602 21.742 39.9811 19.2577 42.2304 17.8266L45.8971 15.703C47.1759 15.0322 48.4256 15.0274 49.3039 15.1678C49.6631 15.9282 50.0077 17.0662 49.7917 18.4101L45.8849 33.3892C45.1739 36.1133 42.6963 37.0358 42.6963 37.0358H42.7085C42.0655 37.2248 41.4321 37.4887 40.8279 37.8398C36.8629 40.1377 35.5137 45.2083 37.814 49.1649C38.1878 49.8065 38.6343 50.378 39.1365 50.8768H39.1317C39.1317 50.8768 40.5998 52.6347 40.2334 55.0731L36.3095 70.1175H36.3047C35.6447 72.6432 33.4679 73.6189 33.155 73.7473C32.5046 73.9313 31.8664 74.1976 31.2549 74.5536C27.2899 76.8516 25.9407 81.922 28.2412 85.8786C30.5439 89.8352 35.6252 91.1815 39.5904 88.8861C42.228 87.3581 43.7058 84.6025 43.7252 81.7646C43.7641 81.4305 44.1039 79.1931 46.1931 77.871L49.8621 75.7449C52.1916 74.5221 54.4314 75.5174 54.4921 75.544C56.9695 76.9291 60.0927 77.0114 62.7255 75.4859C65.3729 73.9531 66.8507 71.1853 66.8604 68.3378L66.8822 68.3741C66.8822 68.3741 67.103 65.8824 69.3622 64.4514L73.0094 62.3399C75.0404 61.2696 77.0035 61.8846 77.518 62.0833C80.0126 63.5287 83.1889 63.6353 85.8606 62.0881C89.8256 59.79 91.1748 54.7197 88.8745 50.763C86.5741 46.8064 81.4903 45.4601 77.5254 47.7556L77.5278 47.7483Z" fill="#12FEC5"/>
</g>
</g>
<defs>
<clipPath id="clip0_1_4425">
<rect width="90" height="90" fill="white"/>
</clipPath>
</defs>
</svg>
