<svg width="240" height="48" viewBox="0 0 240 48" fill="none" xmlns="http://www.w3.org/2000/svg">
<g clip-path="url(#clip0_1_4410)">
<path d="M57.99 25.9882C57.99 31.7821 61.5961 35.6202 67.1157 35.6202C71.8628 35.6202 75.3953 32.7049 75.9472 28.4608H71.4211C70.9428 30.4536 69.3604 31.5607 67.1157 31.5607C64.2456 31.5607 62.4793 29.4202 62.4793 25.9882C62.4793 22.5561 64.3927 20.3788 67.263 20.3788C69.3972 20.3788 70.906 21.449 71.4211 23.5157H75.9104C75.4321 19.124 72.0467 16.3562 67.0791 16.3562C61.7066 16.3562 57.99 20.3419 57.99 25.9882Z" fill="white"/>
<path d="M78.2209 25.988C78.2209 31.6711 82.3054 35.5831 87.9354 35.5831C93.5655 35.5831 97.6502 31.6711 97.6502 25.988C97.6502 20.3047 93.5655 16.3928 87.9354 16.3928C82.3054 16.3928 78.2209 20.3047 78.2209 25.988ZM82.7103 25.988C82.7103 22.6665 84.8444 20.4154 87.9354 20.4154C91.0264 20.4154 93.1608 22.6665 93.1608 25.988C93.1608 29.3092 91.0264 31.5605 87.9354 31.5605C84.8444 31.5605 82.7103 29.3092 82.7103 25.988Z" fill="white"/>
<path d="M108.678 35.6191C111.438 35.6191 113.793 34.4013 114.897 32.2976L115.192 35.1393H119.313V7.68262H114.861V19.2336C113.72 17.4253 111.475 16.3551 108.936 16.3551C103.453 16.3551 100.141 20.4146 100.141 26.0979C100.141 31.7442 103.416 35.6191 108.678 35.6191ZM109.672 31.4858C106.544 31.4858 104.631 29.1978 104.631 25.9501C104.631 22.7027 106.544 20.3777 109.672 20.3777C112.8 20.3777 114.824 22.6657 114.824 25.9501C114.824 29.2348 112.8 31.4858 109.672 31.4858Z" fill="white"/>
<path d="M132.124 35.6202C136.871 35.6202 140.182 33.2215 140.955 29.2359H136.797C136.282 30.9703 134.662 31.9298 132.197 31.9298C129.217 31.9298 127.524 30.3059 127.193 27.0953L140.881 27.0585V25.693C140.881 20.0097 137.422 16.3562 131.976 16.3562C126.641 16.3562 122.924 20.3049 122.924 26.0251C122.924 31.6714 126.714 35.6202 132.124 35.6202ZM132.013 20.0466C134.699 20.0466 136.429 21.7073 136.429 24.2168H127.303C127.745 21.4859 129.364 20.0466 132.013 20.0466Z" fill="white"/>
<path d="M164.566 30.0103V25.8772H161.291V8.16309H155.366L143.187 25.8772V30.0103H156.838V35.1401H161.291V30.0103H164.566ZM148.191 25.8772L156.838 13.2559V25.8772H148.191Z" fill="white"/>
<path d="M179.671 16.8355C178.935 16.6509 178.31 16.5771 177.684 16.5771C175.255 16.5771 173.526 17.795 172.753 19.6033L172.495 16.9462H168.264V35.1399H172.753V26.283C172.753 22.7402 174.777 21.0057 178.015 21.0057H179.671V16.8355Z" fill="white"/>
<path d="M190.231 35.6202C194.978 35.6202 198.29 33.2215 199.063 29.2359H194.904C194.389 30.9703 192.77 31.9298 190.305 31.9298C187.324 31.9298 185.631 30.3059 185.3 27.0953L198.989 27.0585V25.693C198.989 20.0097 195.53 16.3562 190.084 16.3562C184.748 16.3562 181.032 20.3049 181.032 26.0251C181.032 31.6714 184.822 35.6202 190.231 35.6202ZM190.121 20.0466C192.807 20.0466 194.536 21.7073 194.536 24.2168H185.411C185.852 21.4859 187.471 20.0466 190.121 20.0466Z" fill="white"/>
<path d="M207.071 35.1404V25.3239C207.071 22.3715 208.764 20.4526 211.524 20.4526C213.841 20.4526 215.35 21.9287 215.35 24.9918V35.1404H219.839V23.9216C219.839 19.1978 217.486 16.3562 212.923 16.3562C210.456 16.3562 208.248 17.4264 207.108 19.2716L206.74 16.9097H202.582V35.1404H207.071Z" fill="white"/>
<path d="M229.659 35.6202C232.493 35.6202 234.959 34.3286 235.731 32.4464L236.064 35.1404H240V24.0691C240 19.0133 236.982 16.3562 232.089 16.3562C227.158 16.3562 223.92 18.9395 223.92 22.8881H227.746C227.746 20.9692 229.219 19.8621 231.867 19.8621C234.148 19.8621 235.621 20.8585 235.621 23.3311V23.737L230.176 24.143C225.869 24.4752 223.441 26.5787 223.441 29.937C223.441 33.369 225.797 35.6202 229.659 35.6202ZM231.132 32.2251C229.107 32.2251 228.004 31.4132 228.004 29.7525C228.004 28.2763 229.071 27.3537 231.867 27.0953L235.657 26.8001V27.7597C235.657 30.5643 233.892 32.2251 231.132 32.2251Z" fill="white"/>
<path d="M47.3849 28.6469L44.7 15.9802C44.6763 15.8676 44.6427 15.7574 44.5993 15.6508C44.2179 14.3333 43.7076 14.048 43.0194 13.4937C42.3828 13.0159 42.1089 12.835 42.1089 12.835C42.1089 12.835 40.3673 16.8198 39.8922 17.1979C35.2342 20.9091 27.4302 26.6916 25.5225 27.7352L25.4875 27.7538C24.8605 28.1328 24.1508 28.357 23.4183 28.408V47.4717C25.0471 47.4296 26.638 46.9743 28.0389 46.1496C30.1455 44.9898 35.7491 40.5318 42.3172 35.248L44.892 33.179C46.6031 31.8128 47.4247 30.456 47.4058 29.0249C47.4111 28.8986 47.4039 28.772 47.3849 28.6469Z" fill="#4D26BC"/>
<path d="M21.7367 27.9894L6.89958 17.0791C6.77581 16.9766 6.66561 16.8588 6.5716 16.7285C6.55848 16.3705 6.45016 16.0224 6.25776 15.72C6.06535 15.4175 5.79583 15.1717 5.47683 15.0078L5.57153 12.835C5.57153 12.835 5.26203 13.0379 4.55528 13.4647C3.66607 13.9975 2.99858 14.3873 2.54129 16.484L2.19714 18.2001L0.0399414 28.9813C0.00991615 29.1331 -0.00325138 29.2878 0.00067754 29.4425C0.0514895 31.3917 1.72598 32.7572 2.10938 33.0431L19.0298 46.0433C20.2947 46.99 21.8377 47.492 23.4182 47.471V28.4992C22.8146 28.536 22.2178 28.3551 21.7367 27.9894Z" fill="#2C0E83"/>
<path d="M43.6605 13.6433C43.6311 13.6223 43.6029 13.5997 43.5758 13.5756C43.0446 13.1296 32.5559 5.97502 26.3513 1.75091C25.5301 1.18793 24.5519 0.894431 23.5542 0.911601C22.5566 0.928771 21.5894 1.25575 20.7883 1.84665L20.0289 2.4164C18.7122 3.39946 16.267 5.21847 13.3186 7.30365C9.93763 9.69709 6.82703 11.7799 4.05968 13.4308C2.88411 14.1314 1.79786 16.0251 4.76504 18.3344C5.07776 18.5679 20.6872 30.0681 20.6872 30.0681C22.4789 31.378 24.5995 31.2614 26.7039 30.0493C28.7517 28.9261 36.0027 23.5346 40.5758 19.9363L41.7373 19.0186C41.8454 18.9322 41.9443 18.8481 42.0382 18.7641C43.9921 17.1599 45.6308 14.9953 43.6605 13.6433Z" fill="#7547F5"/>
</g>
<defs>
<clipPath id="clip0_1_4410">
<rect width="240" height="46.5608" fill="white" transform="translate(0 0.910156)"/>
</clipPath>
</defs>
</svg>
