<svg width="46" height="40" viewBox="0 0 46 40" fill="none" xmlns="http://www.w3.org/2000/svg">
<path d="M11.6771 40H4.09913C2.50676 40 1.7202 40 1.24061 39.6932C0.722596 39.3574 0.406058 38.801 0.367686 38.187C0.338882 37.6213 0.732215 36.9304 1.51878 35.5491L20.2298 2.56836C21.026 1.16786 21.4288 0.467606 21.9372 0.208625C22.484 -0.0695417 23.1363 -0.0695417 23.6831 0.208625C24.1915 0.467606 24.5944 1.16786 25.3905 2.56836L29.2371 9.28305L29.2567 9.31732C30.1166 10.8198 30.5527 11.5817 30.7431 12.3814C30.9541 13.2543 30.9541 14.1751 30.7431 15.0481C30.5512 15.8538 30.1196 16.6213 29.2467 18.1464L19.4182 35.5203L19.3928 35.5648L19.3923 35.5657C18.527 37.08 18.0884 37.8476 17.4806 38.4267C16.8187 39.06 16.0225 39.5201 15.1496 39.7795C14.3534 40 13.4613 40 11.6771 40Z" fill="white"/>
<path d="M30.8141 40H41.6724C43.2744 40 44.0803 40 44.5602 39.6839C45.078 39.348 45.404 38.7818 45.4332 38.1683C45.4607 37.6208 45.076 36.9569 44.3221 35.6559L44.322 35.6558C44.2995 35.6174 44.277 35.5784 44.2541 35.5388L44.2435 35.5205L38.8045 26.2159L38.7426 26.1112L38.7415 26.1092C37.9779 24.818 37.5922 24.1659 37.097 23.9137C36.5505 23.6355 35.9074 23.6355 35.3609 23.9137C34.862 24.1727 34.4592 24.8538 33.663 26.2255L28.2433 35.5301L28.2247 35.5622L28.2245 35.5625C27.4313 36.9318 27.0348 37.6161 27.0634 38.1776C27.1018 38.7917 27.4183 39.3574 27.9363 39.6932C28.4064 40 29.2121 40 30.8141 40Z" fill="white"/>
</svg>
