<svg width="56" height="56" viewBox="0 0 56 56" fill="none" xmlns="http://www.w3.org/2000/svg">
<path d="M33.5757 26.7398C40.1866 26.7398 45.5457 21.3807 45.5457 14.7698C45.5457 8.15897 40.1866 2.7998 33.5757 2.7998C26.9649 2.7998 21.6057 8.15897 21.6057 14.7698C21.6057 21.3807 26.9649 26.7398 33.5757 26.7398Z" stroke="white" stroke-width="5" stroke-miterlimit="10"/>
<path d="M12.0419 43.4932C16.0109 43.4932 19.2286 40.2756 19.2286 36.3065C19.2286 32.3375 16.0109 29.1199 12.0419 29.1199C8.07277 29.1199 4.85522 32.3375 4.85522 36.3065C4.85522 40.2756 8.07277 43.4932 12.0419 43.4932Z" stroke="white" stroke-width="5" stroke-miterlimit="10"/>
<path d="M35.9791 49.4664C39.278 49.4664 41.9524 46.7921 41.9524 43.4931C41.9524 40.1941 39.278 37.5198 35.9791 37.5198C32.6801 37.5198 30.0057 40.1941 30.0057 43.4931C30.0057 46.7921 32.6801 49.4664 35.9791 49.4664Z" stroke="white" stroke-width="5" stroke-miterlimit="10"/>
</svg>
