<svg width="224" height="55" fill="none" xmlns="http://www.w3.org/2000/svg" class="hoverView scale-75 sm-extended:scale-50 md-extended:scale-75 3xl:scale-100"><path d="M4.167.236A4.144 4.144 0 0 0 .02 4.38v24.874h6.223v-22.8h21.03V.234H4.167Zm30.553 0v6.218h8.835L0 48.386v6.219h50.232a4.162 4.162 0 0 0 2.935-1.215 4.146 4.146 0 0 0 1.215-2.93V27.37h-6.223v21.016H9.001l39.18-37.744v9.286h6.222V4.585a4.35 4.35 0 0 0-4.35-4.35H34.72Zm103.789 2.073V42.35h7.756V30.98a1.468 1.468 0 0 1 .671-1.228c.043-.027.087-.05.132-.072.183-.093.384-.15.595-.157 1.27 0 1.818.884 2.816 2.65l5.522 10.25h9.395l-10.823-18.524 10.704-11.55h-9.417l-9.595 11.079V6.136a3.866 3.866 0 0 0-1.091-2.672 3.818 3.818 0 0 0-2.634-1.155h-4.031Zm-16.183 9.472c-9.053 0-13.58 5.17-13.58 15.669 0 10.368 4.527 15.61 13.58 15.61 9.054 0 13.635-5.242 13.635-15.61 0-10.48-4.581-15.67-13.635-15.67Zm88.031 0c-9.047 0-13.571 5.17-13.571 15.669 0 10.368 4.517 15.61 13.571 15.61 9.052 0 13.643-5.242 13.643-15.61 0-10.48-4.595-15.67-13.643-15.67Zm-128.566.53v2.473a3.762 3.762 0 0 0 2.35 3.593c.468.19.978.277 1.486.264h11.222L80.903 36.417v5.959h25.758v-6.529H90.359l15.847-17.092v-6.443H81.791Zm84.646.026 10.152 29.36c1.183 3.977-.281 6.018-4.397 6.018l-2.102.013v6.176c.227.167 1.244.225 3.16.225 6.206 0 8.013-1.698 9.816-6.639l11.796-35.153h-5.246c-1.92 0-3.107.916-3.56 2.676L180.87 33.18l-5.917-20.843h-8.516Zm-44.111 6.112c3.846 0 5.772 2.905 5.772 8.772-.055 5.972-1.975 9.055-5.827 9.055-3.853 0-5.83-2.96-5.892-8.826 0-5.984 1.984-9 5.947-9Zm88.031 0c3.852 0 5.772 2.905 5.772 8.772-.055 5.972-1.981 9.055-5.827 9.055s-5.824-2.96-5.879-8.826c0-5.984 1.977-9 5.934-9Z" fill="#fff"></path></svg>